<svg width="155" height="58" viewBox="0 0 155 58" fill="none" xmlns="http://www.w3.org/2000/svg">
<g clip-path="url(#clip0_203_3090)">
<path d="M74 57V52H76.5872V52.5484H74.5229V54.129H75.5963C75.8991 54.129 76.1743 54.1936 76.367 54.2903C76.5596 54.3871 76.7248 54.5806 76.8349 54.7742C76.945 55 77 55.2258 77 55.5161C77 55.8065 76.945 56.0645 76.8349 56.2903C76.7248 56.5161 76.5596 56.6774 76.367 56.8065C76.1468 56.9355 75.8991 57 75.5963 57H74ZM74.4954 56.4839H75.5688C75.7615 56.4839 75.9266 56.4516 76.0642 56.3548C76.2018 56.2581 76.3119 56.129 76.367 56C76.4495 55.8387 76.4771 55.7097 76.4771 55.5484C76.4771 55.3226 76.3945 55.0968 76.2294 54.9355C76.0642 54.7742 75.844 54.6774 75.5688 54.6774H74.4954V56.4839Z" fill="#777777"/>
<path d="M78 56V55.5641H78.1154C78.2019 55.5641 78.2885 55.5385 78.375 55.5128C78.4327 55.4872 78.4904 55.4103 78.5481 55.3333C78.5769 55.2308 78.6346 55.1282 78.6346 54.9487C78.6635 54.7949 78.6635 54.5897 78.6923 54.3333L78.75 53H81V55.9744H80.4808V53.4103H79.2404L79.1827 54.4872C79.1827 54.7436 79.1539 54.9487 79.0962 55.1282C79.0673 55.3077 79.0096 55.4615 78.9231 55.5897C78.8365 55.718 78.75 55.8205 78.6346 55.8718C78.5192 55.9231 78.3462 55.9744 78.1731 55.9744H78V56Z" fill="#777777"/>
<path d="M84.2316 56C84.0105 56 83.7895 55.9746 83.6 55.8983C83.4105 55.822 83.2526 55.7203 83.1579 55.5932C83.0316 55.4661 83 55.2881 83 55.1102C83 54.9322 83.0316 54.8051 83.1263 54.7034C83.2211 54.6017 83.3158 54.5254 83.4737 54.4492C83.6 54.3983 83.7579 54.3475 83.9474 54.322C84.1053 54.2966 84.2947 54.2712 84.4526 54.2458C84.6737 54.2203 84.8632 54.1949 84.9895 54.1949C85.1158 54.1949 85.2421 54.1695 85.3053 54.1441C85.3684 54.1186 85.4 54.0678 85.4 53.9915V53.9661C85.4 53.7881 85.3368 53.6356 85.2105 53.5339C85.0842 53.4322 84.8947 53.3814 84.6421 53.3814C84.3579 53.3814 84.1684 53.4322 84.0105 53.5339C83.8526 53.6356 83.7579 53.7373 83.6947 53.839L83.1579 53.6864C83.2526 53.5085 83.379 53.3559 83.5368 53.2542C83.6947 53.1525 83.8842 53.0763 84.0737 53.0509C84.2632 53 84.4526 53 84.6421 53C84.7684 53 84.8947 53 85.0526 53.0254C85.2105 53.0508 85.3684 53.1017 85.4947 53.1525C85.6526 53.2288 85.7474 53.3305 85.8421 53.4576C85.9368 53.6102 86 53.7881 86 54.0169V55.9746H85.4316V55.5678H85.4C85.3684 55.6441 85.3053 55.6949 85.2105 55.7712C85.1158 55.8475 84.9895 55.8983 84.8632 55.9492C84.6421 55.9746 84.4526 56 84.2316 56ZM84.3263 55.5932C84.5474 55.5932 84.7368 55.5678 84.8947 55.4915C85.0526 55.4153 85.1789 55.339 85.2421 55.2119C85.3368 55.1102 85.3684 54.9831 85.3684 54.8559V54.4492C85.3368 54.4746 85.3053 54.5 85.2105 54.5C85.1158 54.5254 85.0526 54.5254 84.9263 54.5508C84.8 54.5763 84.7053 54.5763 84.6105 54.5763C84.5158 54.5763 84.4211 54.6017 84.3579 54.6017C84.2 54.6271 84.0737 54.6525 83.9474 54.678C83.8211 54.7034 83.7263 54.7542 83.6316 54.8305C83.5684 54.9068 83.5053 54.9831 83.5053 55.1102C83.5053 55.2627 83.5684 55.3898 83.7263 55.4661C83.9158 55.5424 84.1053 55.5932 84.3263 55.5932Z" fill="#777777"/>
<path d="M89 53V53.4359H87.5V56H87V53.0256H89V53Z" fill="#777777"/>
<path d="M91.5 57C91.1887 57 90.934 56.9016 90.7075 56.7377C90.4811 56.5738 90.3113 56.3443 90.1981 56.0492C90.0849 55.7541 90 55.3934 90 55C90 54.6066 90.0566 54.2459 90.1981 53.9508C90.3396 53.6557 90.5094 53.4262 90.7075 53.2623C90.934 53.0984 91.1887 53 91.5 53C91.8113 53 92.066 53.0984 92.2925 53.2623C92.5189 53.4262 92.6887 53.6557 92.8019 53.9508C92.9151 54.2459 93 54.6066 93 55C93 55.3934 92.9434 55.7541 92.8019 56.0492C92.6887 56.3443 92.4906 56.5738 92.2925 56.7377C92.066 56.9344 91.8113 57 91.5 57ZM91.5 56.4754C91.7264 56.4754 91.9245 56.4098 92.066 56.2787C92.2076 56.1475 92.3208 55.9836 92.3774 55.7541C92.434 55.5246 92.4906 55.2951 92.4906 55.0328C92.4906 54.7705 92.4623 54.541 92.3774 54.3115C92.3208 54.082 92.2076 53.918 92.066 53.7869C91.9245 53.6557 91.7264 53.5902 91.5 53.5902C91.2736 53.5902 91.0755 53.6557 90.934 53.7869C90.7925 53.918 90.6792 54.1148 90.6226 54.3115C90.566 54.541 90.5094 54.7705 90.5094 55.0328C90.5094 55.2951 90.5377 55.5246 90.6226 55.7541C90.6792 55.9836 90.7925 56.1475 90.934 56.2787C91.1038 56.4098 91.2736 56.4754 91.5 56.4754Z" fill="#777777"/>
<path d="M94 57V55.6667H94.3279C94.3934 55.6133 94.459 55.5333 94.5246 55.4533C94.5902 55.3733 94.623 55.2933 94.6885 55.1867C94.7213 55.08 94.7541 54.9467 94.7869 54.7867C94.8197 54.6267 94.8525 54.44 94.8525 54.2267L94.9836 53H97.4098V55.6667H98V57H97.4098V56.12H94.5902V57H94ZM94.9836 55.6667H96.8197V53.4533H95.541L95.4426 54.2267C95.4098 54.5467 95.3443 54.84 95.2787 55.08C95.2131 55.3467 95.1148 55.5333 94.9836 55.6667Z" fill="#777777"/>
<path d="M99.5 52.8025C99.3846 52.8025 99.2692 52.7716 99.1538 52.679C99.0385 52.6173 99 52.5247 99 52.4012C99 52.2778 99.0385 52.2161 99.1538 52.1235C99.2692 52.0617 99.3462 52 99.5 52C99.6154 52 99.7308 52.0309 99.8462 52.1235C99.9615 52.1852 100 52.2778 100 52.4012C100 52.5247 99.9615 52.5864 99.8462 52.679C99.7308 52.7716 99.6154 52.8025 99.5 52.8025ZM99.1538 57V53.4198H99.8462V57H99.1538Z" fill="#777777"/>
<path d="M101.568 56.1613L103.337 53.2581H104V57H103.432V54.0968L101.663 57H101V53.2581H101.568V56.1613ZM102.958 52H103.495C103.495 52.2581 103.4 52.4839 103.242 52.6452C103.053 52.8065 102.832 52.9032 102.516 52.9032C102.2 52.9032 101.979 52.8065 101.789 52.6452C101.6 52.4839 101.537 52.2581 101.537 52H102.074C102.074 52.129 102.105 52.2258 102.168 52.3226C102.232 52.4194 102.358 52.4516 102.516 52.4516C102.674 52.4516 102.8 52.4194 102.863 52.3226C102.926 52.2258 102.958 52.129 102.958 52Z" fill="#777777"/>
<path d="M105.587 53V56H105V53H105.587ZM107.543 54.2931V54.7328H105.457V54.2931H107.543ZM108 53V56H107.413V53H108Z" fill="#777777"/>
<path d="M110.232 56C110.011 56 109.789 55.9746 109.6 55.8983C109.411 55.822 109.253 55.7203 109.158 55.5932C109.032 55.4661 109 55.2881 109 55.1102C109 54.9322 109.032 54.8051 109.126 54.7034C109.221 54.6017 109.316 54.5254 109.474 54.4492C109.6 54.3983 109.758 54.3475 109.947 54.322C110.105 54.2966 110.295 54.2712 110.453 54.2458C110.674 54.2203 110.863 54.1949 110.989 54.1949C111.116 54.1949 111.242 54.1695 111.305 54.1441C111.368 54.1186 111.4 54.0678 111.4 53.9915V53.9661C111.4 53.7881 111.337 53.6356 111.211 53.5339C111.084 53.4322 110.895 53.3814 110.642 53.3814C110.358 53.3814 110.168 53.4322 110.011 53.5339C109.853 53.6356 109.758 53.7373 109.695 53.839L109.158 53.6864C109.253 53.5085 109.379 53.3559 109.537 53.2542C109.695 53.1525 109.884 53.0763 110.074 53.0509C110.263 53 110.453 53 110.642 53C110.768 53 110.895 53 111.053 53.0254C111.211 53.0508 111.368 53.1017 111.495 53.1525C111.653 53.2288 111.747 53.3305 111.842 53.4576C111.937 53.6102 112 53.7881 112 54.0169V55.9746H111.432V55.5678H111.4C111.368 55.6441 111.305 55.6949 111.211 55.7712C111.116 55.8475 110.989 55.8983 110.863 55.9492C110.642 55.9746 110.453 56 110.232 56ZM110.326 55.5932C110.547 55.5932 110.737 55.5678 110.895 55.4915C111.053 55.4153 111.179 55.339 111.242 55.2119C111.337 55.1102 111.368 54.9831 111.368 54.8559V54.4492C111.337 54.4746 111.305 54.5 111.211 54.5C111.116 54.5254 111.053 54.5254 110.926 54.5508C110.8 54.5763 110.705 54.5763 110.611 54.5763C110.516 54.5763 110.421 54.6017 110.358 54.6017C110.2 54.6271 110.074 54.6525 109.947 54.678C109.821 54.7034 109.726 54.7542 109.632 54.8305C109.568 54.9068 109.505 54.9831 109.505 55.1102C109.505 55.2627 109.568 55.3898 109.726 55.4661C109.916 55.5424 110.105 55.5932 110.326 55.5932Z" fill="#777777"/>
<path d="M117.5 57C117.189 57 116.934 56.9016 116.708 56.7377C116.481 56.5738 116.311 56.3443 116.198 56.0492C116.085 55.7541 116 55.3934 116 55C116 54.6066 116.057 54.2459 116.198 53.9508C116.34 53.6557 116.509 53.4262 116.708 53.2623C116.934 53.0984 117.189 53 117.5 53C117.811 53 118.066 53.0984 118.292 53.2623C118.519 53.4262 118.689 53.6557 118.802 53.9508C118.915 54.2459 119 54.6066 119 55C119 55.3934 118.943 55.7541 118.802 56.0492C118.689 56.3443 118.491 56.5738 118.292 56.7377C118.038 56.9344 117.783 57 117.5 57ZM117.5 56.4754C117.726 56.4754 117.925 56.4098 118.066 56.2787C118.208 56.1475 118.321 55.9836 118.377 55.7541C118.434 55.5246 118.491 55.2951 118.491 55.0328C118.491 54.7705 118.462 54.541 118.377 54.3115C118.321 54.082 118.208 53.918 118.066 53.7869C117.925 53.6557 117.726 53.5902 117.5 53.5902C117.274 53.5902 117.075 53.6557 116.934 53.7869C116.792 53.918 116.679 54.1148 116.623 54.3115C116.566 54.541 116.509 54.7705 116.509 55.0328C116.509 55.2951 116.538 55.5246 116.623 55.7541C116.679 55.9836 116.792 56.1475 116.934 56.2787C117.075 56.4098 117.274 56.4754 117.5 56.4754Z" fill="#777777"/>
<path d="M120 58V53.0617H120.5V53.6173H120.559C120.588 53.5556 120.647 53.463 120.706 53.3704C120.765 53.2778 120.882 53.1852 121 53.1235C121.118 53.0309 121.294 53 121.529 53C121.824 53 122.059 53.0617 122.294 53.216C122.5 53.3704 122.676 53.5864 122.824 53.8642C122.941 54.142 123 54.4815 123 54.8519C123 55.2222 122.941 55.5617 122.824 55.8395C122.706 56.1173 122.529 56.3333 122.324 56.4877C122.118 56.642 121.853 56.7037 121.559 56.7037C121.353 56.7037 121.176 56.6728 121.029 56.5802C120.912 56.4877 120.794 56.4259 120.735 56.3025C120.676 56.2099 120.618 56.1173 120.559 56.0556H120.529V57.9691H120V58ZM120.5 54.8519C120.5 55.1296 120.529 55.3765 120.618 55.5617C120.706 55.7778 120.794 55.9321 120.941 56.0556C121.088 56.179 121.265 56.2407 121.471 56.2407C121.676 56.2407 121.882 56.179 122.029 56.0556C122.176 55.9321 122.294 55.7778 122.353 55.5617C122.441 55.3457 122.471 55.1296 122.471 54.8519C122.471 54.6049 122.441 54.358 122.353 54.1728C122.265 53.9568 122.176 53.8025 122.029 53.679C121.882 53.5556 121.706 53.4938 121.471 53.4938C121.265 53.4938 121.088 53.5556 120.941 53.6481C120.794 53.7716 120.676 53.9259 120.618 54.1111C120.559 54.3272 120.5 54.5741 120.5 54.8519Z" fill="#777777"/>
<path d="M127 53V53.4359H125.5V56H125V53.0256H127V53Z" fill="#777777"/>
<path d="M129.232 56C129.011 56 128.789 55.9746 128.6 55.8983C128.411 55.822 128.253 55.7203 128.158 55.5932C128.032 55.4661 128 55.2881 128 55.1102C128 54.9322 128.032 54.8051 128.126 54.7034C128.221 54.6017 128.316 54.5254 128.474 54.4492C128.6 54.3983 128.758 54.3475 128.947 54.322C129.105 54.2966 129.295 54.2712 129.453 54.2458C129.674 54.2203 129.863 54.1949 129.989 54.1949C130.116 54.1949 130.242 54.1695 130.305 54.1441C130.368 54.1186 130.4 54.0678 130.4 53.9915V53.9661C130.4 53.7881 130.337 53.6356 130.211 53.5339C130.084 53.4322 129.895 53.3814 129.642 53.3814C129.358 53.3814 129.168 53.4322 129.011 53.5339C128.853 53.6356 128.758 53.7373 128.695 53.839L128.158 53.6864C128.253 53.5085 128.379 53.3559 128.537 53.2542C128.695 53.1525 128.884 53.0763 129.074 53.0509C129.263 53 129.453 53 129.642 53C129.768 53 129.895 53 130.053 53.0254C130.211 53.0508 130.368 53.1017 130.495 53.1525C130.653 53.2288 130.747 53.3305 130.842 53.4576C130.937 53.6102 131 53.7881 131 54.0169V55.9746H130.432V55.5678H130.4C130.368 55.6441 130.305 55.6949 130.211 55.7712C130.116 55.8475 129.989 55.8983 129.863 55.9492C129.611 55.9746 129.453 56 129.232 56ZM129.326 55.5932C129.547 55.5932 129.737 55.5678 129.895 55.4915C130.053 55.4153 130.179 55.339 130.242 55.2119C130.337 55.1102 130.368 54.9831 130.368 54.8559V54.4492C130.337 54.4746 130.305 54.5 130.211 54.5C130.116 54.5254 130.053 54.5254 129.926 54.5508C129.8 54.5763 129.705 54.5763 129.611 54.5763C129.516 54.5763 129.421 54.6017 129.358 54.6017C129.2 54.6271 129.074 54.6525 128.947 54.678C128.821 54.7034 128.726 54.7542 128.632 54.8305C128.568 54.9068 128.505 54.9831 128.505 55.1102C128.505 55.2627 128.568 55.3898 128.726 55.4661C128.916 55.5424 129.105 55.5932 129.326 55.5932Z" fill="#777777"/>
<path d="M132.587 53V56H132V53H132.587ZM134.543 54.2931V54.7328H132.457V54.2931H134.543ZM135 53V56H134.413V53H135Z" fill="#777777"/>
<path d="M136.5 52.8025C136.385 52.8025 136.269 52.7716 136.154 52.679C136.038 52.6173 136 52.5247 136 52.4012C136 52.2778 136.038 52.2161 136.154 52.1235C136.269 52.0617 136.346 52 136.5 52C136.615 52 136.731 52.0309 136.846 52.1235C136.962 52.1852 137 52.2778 137 52.4012C137 52.5247 136.962 52.5864 136.846 52.679C136.731 52.7716 136.615 52.8025 136.5 52.8025ZM136.115 57V53.4198H136.808V57H136.115Z" fill="#777777"/>
<path d="M138 55.175H138.648C138.648 55.3 138.75 55.4 138.886 55.475C139.023 55.55 139.227 55.575 139.466 55.575C139.705 55.575 139.909 55.55 140.08 55.475C140.25 55.4 140.352 55.275 140.352 55.125C140.352 55.025 140.318 54.95 140.25 54.875C140.182 54.8 140.08 54.75 139.977 54.7C139.875 54.65 139.705 54.65 139.568 54.65H138.886V54.25H139.568C139.807 54.25 139.977 54.2 140.114 54.125C140.216 54.05 140.284 53.95 140.284 53.825C140.284 53.7 140.216 53.6 140.08 53.5C139.943 53.425 139.773 53.375 139.534 53.375C139.295 53.375 139.091 53.425 138.955 53.5C138.784 53.575 138.716 53.675 138.716 53.8H138.102C138.102 53.65 138.17 53.5 138.307 53.375C138.443 53.25 138.614 53.15 138.818 53.1C139.023 53.025 139.261 53 139.568 53C139.841 53 140.08 53.025 140.284 53.1C140.489 53.175 140.659 53.275 140.761 53.4C140.864 53.525 140.932 53.65 140.932 53.825C140.932 54 140.864 54.125 140.727 54.225C140.591 54.325 140.455 54.4 140.25 54.45V54.475C140.386 54.475 140.523 54.525 140.625 54.575C140.727 54.65 140.83 54.725 140.898 54.825C140.966 54.925 141 55.025 141 55.15C141 55.325 140.932 55.475 140.795 55.6C140.659 55.725 140.489 55.825 140.25 55.9C140.011 55.975 139.773 56 139.466 56C139.193 56 138.92 55.975 138.716 55.9C138.477 55.825 138.307 55.75 138.205 55.625C138.068 55.475 138 55.35 138 55.175Z" fill="#777777"/>
<path d="M143.232 56C143.011 56 142.789 55.9746 142.6 55.8983C142.411 55.822 142.253 55.7203 142.158 55.5932C142.032 55.4661 142 55.2881 142 55.1102C142 54.9322 142.032 54.8051 142.126 54.7034C142.221 54.6017 142.316 54.5254 142.474 54.4492C142.6 54.3983 142.758 54.3475 142.947 54.322C143.105 54.2966 143.295 54.2712 143.453 54.2458C143.674 54.2203 143.863 54.1949 143.989 54.1949C144.116 54.1949 144.242 54.1695 144.305 54.1441C144.368 54.1186 144.4 54.0678 144.4 53.9915V53.9661C144.4 53.7881 144.337 53.6356 144.211 53.5339C144.084 53.4322 143.895 53.3814 143.642 53.3814C143.358 53.3814 143.168 53.4322 143.011 53.5339C142.853 53.6356 142.758 53.7373 142.695 53.839L142.158 53.6864C142.253 53.5085 142.379 53.3559 142.537 53.2542C142.695 53.1525 142.884 53.0763 143.074 53.0509C143.263 53 143.453 53 143.642 53C143.768 53 143.895 53 144.053 53.0254C144.211 53.0508 144.368 53.1017 144.495 53.1525C144.653 53.2288 144.747 53.3305 144.842 53.4576C144.937 53.6102 145 53.7881 145 54.0169V55.9746H144.432V55.5678H144.4C144.368 55.6441 144.305 55.6949 144.211 55.7712C144.116 55.8475 143.989 55.8983 143.863 55.9492C143.611 55.9746 143.453 56 143.232 56ZM143.326 55.5932C143.547 55.5932 143.737 55.5678 143.895 55.4915C144.053 55.4153 144.179 55.339 144.242 55.2119C144.337 55.1102 144.368 54.9831 144.368 54.8559V54.4492C144.337 54.4746 144.305 54.5 144.211 54.5C144.116 54.5254 144.053 54.5254 143.926 54.5508C143.8 54.5763 143.705 54.5763 143.611 54.5763C143.516 54.5763 143.421 54.6017 143.358 54.6017C143.2 54.6271 143.074 54.6525 142.947 54.678C142.821 54.7034 142.726 54.7542 142.632 54.8305C142.568 54.9068 142.505 54.9831 142.505 55.1102C142.505 55.2627 142.568 55.3898 142.726 55.4661C142.916 55.5424 143.074 55.5932 143.326 55.5932Z" fill="#777777"/>
<path d="M148.556 53V55.5974H149V57H148.5V56.013H146V53H146.5V55.5974H148.056V53H148.556Z" fill="#777777"/>
<path d="M150.5 52.8025C150.385 52.8025 150.269 52.7716 150.154 52.679C150.038 52.6173 150 52.5247 150 52.4012C150 52.2778 150.038 52.2161 150.154 52.1235C150.269 52.0617 150.346 52 150.5 52C150.615 52 150.731 52.0309 150.846 52.1235C150.962 52.1852 151 52.2778 151 52.4012C151 52.5247 150.962 52.5864 150.846 52.679C150.731 52.7716 150.615 52.8025 150.5 52.8025ZM150.154 57V53.4198H150.846V57H150.154Z" fill="#777777"/>
<path d="M152 55.9741L153.042 54.4741H153.642L152.6 55.9741H152ZM154.432 55.9741V53.3879H153.453C153.232 53.3879 153.074 53.4397 152.947 53.5172C152.821 53.5948 152.758 53.7241 152.758 53.8534C152.758 54.0086 152.821 54.1121 152.916 54.1897C153.011 54.2672 153.2 54.319 153.389 54.319H154.589V54.7586H153.389C153.137 54.7586 152.916 54.7328 152.758 54.6552C152.568 54.5776 152.442 54.4741 152.347 54.3448C152.253 54.2155 152.189 54.0603 152.189 53.8793C152.189 53.6983 152.253 53.5431 152.347 53.4138C152.442 53.2845 152.6 53.181 152.789 53.1035C152.979 53.0259 153.2 53 153.484 53H155V56H154.432V55.9741Z" fill="#777777"/>
<path d="M75.0285 1H76.8505V4.25C76.8505 4.66667 76.9359 5 77.0783 5.25C77.2206 5.5 77.4484 5.66667 77.7616 5.77778C78.0747 5.88889 78.4448 5.94445 78.8719 5.94445C79.0712 5.94445 79.2989 5.94444 79.5267 5.91667C79.7545 5.88889 79.9822 5.88889 80.2384 5.86111C80.4662 5.83333 80.694 5.80556 80.9217 5.75C81.1495 5.72222 81.3203 5.66667 81.4911 5.61111V7.08333C81.3203 7.13889 81.121 7.19445 80.9217 7.22222C80.7224 7.25 80.4947 7.30556 80.2669 7.33333C80.0392 7.36111 79.8114 7.38889 79.5552 7.38889C79.2989 7.38889 79.0996 7.41667 78.8719 7.41667C78.0747 7.41667 77.4199 7.30556 76.8221 7.08333C76.2242 6.86111 75.7971 6.52778 75.484 6.05556C75.1708 5.58333 75 4.97222 75 4.22222V1H75.0285ZM81.1779 1H83V11H81.1779V1Z" fill="#1D1D1D"/>
<path d="M89.6923 12C89.1838 12 88.735 11.9137 88.3162 11.741C87.8974 11.5683 87.5983 11.3094 87.359 10.964C87.1197 10.6187 87 10.187 87 9.66906C87 9.23741 87.0897 8.86331 87.2393 8.57554C87.3889 8.28777 87.6282 8.05755 87.9274 7.88489C88.2265 7.71223 88.5556 7.56835 88.9145 7.48201C89.2735 7.39568 89.6624 7.33813 90.0513 7.28058C90.5299 7.22302 90.9188 7.19424 91.188 7.16547C91.4872 7.13669 91.6966 7.07914 91.8461 6.99281C91.9957 6.90647 92.0556 6.79137 92.0556 6.61871V6.58993C92.0556 6.21583 91.9359 5.92806 91.6966 5.69784C91.4573 5.4964 91.1282 5.38129 90.6795 5.38129C90.2009 5.38129 89.8419 5.46763 89.5727 5.66906C89.3034 5.8705 89.1239 6.10072 89.0342 6.35971L87.2692 6.1295C87.4188 5.66906 87.6282 5.26619 87.9573 4.94964C88.2863 4.63309 88.6752 4.40288 89.1538 4.23022C89.6325 4.05755 90.141 4 90.7094 4C91.0983 4 91.4872 4.05755 91.8761 4.14388C92.265 4.23022 92.6239 4.3741 92.9231 4.57554C93.2521 4.77698 93.4915 5.03597 93.7009 5.38129C93.9103 5.72662 94 6.15827 94 6.67626V11.8849H92.1752V10.8201H92.1154C91.9957 11.0504 91.8462 11.2518 91.6368 11.4245C91.4274 11.5971 91.1581 11.7698 90.859 11.8849C90.5598 12 90.1111 12 89.6923 12ZM90.2009 10.6475C90.5897 10.6475 90.9188 10.5612 91.188 10.4173C91.4573 10.2734 91.6966 10.0719 91.8461 9.84173C91.9957 9.61151 92.0855 9.32374 92.0855 9.03597V8.11511C92.0256 8.17266 91.9359 8.20144 91.7863 8.25899C91.6368 8.31655 91.4872 8.34532 91.3077 8.3741C91.1282 8.40288 90.9487 8.43165 90.7991 8.46043C90.6496 8.48921 90.4701 8.51798 90.3504 8.51798C90.0812 8.54676 89.812 8.60432 89.6026 8.69065C89.3932 8.77698 89.2137 8.89209 89.0641 9.03597C88.9145 9.17986 88.8547 9.38129 88.8547 9.61151C88.8547 9.95683 88.9744 10.2158 89.2436 10.3885C89.5128 10.5612 89.812 10.6475 90.2009 10.6475Z" fill="#1D1D1D"/>
<path d="M101.671 11C100.902 11 100.248 10.828 99.7073 10.4839C99.1667 10.1398 98.7398 9.681 98.4553 9.07885C98.1707 8.4767 98 7.78853 98 7.01434C98 6.24014 98.1423 5.5233 98.4553 4.92115C98.7683 4.319 99.1667 3.86022 99.7358 3.51613C100.305 3.17204 100.931 3 101.671 3C102.297 3 102.837 3.1147 103.321 3.34409C103.805 3.57348 104.175 3.88889 104.488 4.319C104.801 4.7491 104.943 5.23656 104.972 5.78136H103.236C103.179 5.4086 103.008 5.09319 102.752 4.83513C102.496 4.57706 102.154 4.46237 101.699 4.46237C101.329 4.46237 101.016 4.54839 100.732 4.7491C100.447 4.94982 100.248 5.23656 100.077 5.60932C99.9065 5.98208 99.8496 6.44086 99.8496 6.95699C99.8496 7.47312 99.935 7.9319 100.077 8.30466C100.22 8.67742 100.447 8.96416 100.732 9.16488C101.016 9.36559 101.329 9.48029 101.728 9.48029C101.984 9.48029 102.24 9.42294 102.439 9.33692C102.638 9.2509 102.837 9.07885 102.98 8.87814C103.122 8.67742 103.207 8.44803 103.264 8.16129H105C104.943 8.70609 104.801 9.19355 104.516 9.62366C104.232 10.0538 103.862 10.3692 103.378 10.5986C102.894 10.828 102.325 11 101.671 11Z" fill="#1D1D1D"/>
<path d="M75.0285 15H76.8505V18.25C76.8505 18.6667 76.9359 19 77.0783 19.25C77.2206 19.5 77.4484 19.6667 77.7616 19.7778C78.0747 19.8889 78.4448 19.9444 78.8719 19.9444C79.0712 19.9444 79.2989 19.9444 79.5267 19.9167C79.7545 19.8889 79.9822 19.8889 80.2384 19.8611C80.4662 19.8333 80.694 19.8056 80.9217 19.75C81.1495 19.7222 81.3203 19.6667 81.4911 19.6111V21.0833C81.3203 21.1389 81.121 21.1944 80.9217 21.2222C80.7224 21.25 80.4947 21.3056 80.2669 21.3333C80.0392 21.3611 79.8114 21.3889 79.5552 21.3889C79.2989 21.3889 79.0996 21.4167 78.8719 21.4167C78.0747 21.4167 77.4199 21.3056 76.8221 21.0833C76.2242 20.8611 75.7971 20.5278 75.484 20.0556C75.1708 19.5833 75 18.9722 75 18.2222V15H75.0285ZM81.1779 15H83V25H81.1779V15Z" fill="#1D1D1D"/>
<path d="M89.8686 23.4519L93.072 18H95V26H93.161V20.5481L89.9576 26H88V18H89.8093V23.4519H89.8686Z" fill="#1D1D1D"/>
<path d="M102.671 26C101.902 26 101.248 25.828 100.707 25.4839C100.167 25.1398 99.7398 24.681 99.4553 24.0789C99.1707 23.4767 99 22.7885 99 22.0143C99 21.2401 99.1423 20.5233 99.4553 19.9211C99.7683 19.319 100.167 18.8602 100.736 18.5161C101.305 18.172 101.931 18 102.671 18C103.297 18 103.837 18.1147 104.321 18.3441C104.805 18.5735 105.175 18.8889 105.488 19.319C105.801 19.7491 105.943 20.2366 105.972 20.7814H104.236C104.179 20.4086 104.008 20.0932 103.752 19.8351C103.496 19.5771 103.154 19.4624 102.699 19.4624C102.329 19.4624 102.016 19.5484 101.732 19.7491C101.447 19.9498 101.248 20.2366 101.077 20.6093C100.907 20.9821 100.85 21.4409 100.85 21.957C100.85 22.4731 100.935 22.9319 101.077 23.3047C101.22 23.6774 101.447 23.9642 101.732 24.1649C102.016 24.3656 102.329 24.4803 102.728 24.4803C102.984 24.4803 103.24 24.4229 103.439 24.3369C103.638 24.2509 103.837 24.0789 103.98 23.8781C104.122 23.6774 104.207 23.448 104.264 23.1613H106C105.943 23.7061 105.801 24.1935 105.516 24.6237C105.232 25.0538 104.862 25.3692 104.378 25.5986C103.894 25.828 103.297 26 102.671 26Z" fill="#1D1D1D"/>
<path d="M109 19.5407V18H116V19.5407H113.419V26H111.581V19.5407H109Z" fill="#1D1D1D"/>
<path d="M123 26C122.2 26 121.492 25.8273 120.877 25.5108C120.262 25.1942 119.831 24.705 119.492 24.1007C119.154 23.4964 119 22.8058 119 22C119 21.1942 119.154 20.5036 119.492 19.8993C119.831 19.295 120.292 18.8345 120.877 18.4892C121.462 18.1439 122.169 18 123 18C123.831 18 124.508 18.1727 125.123 18.4892C125.738 18.8058 126.169 19.295 126.508 19.8993C126.846 20.5036 127 21.1942 127 22C127 22.8058 126.846 23.4964 126.508 24.1007C126.169 24.705 125.708 25.1655 125.123 25.5108C124.538 25.8561 123.831 26 123 26ZM123.031 24.5324C123.462 24.5324 123.831 24.4173 124.138 24.187C124.446 23.9568 124.662 23.6403 124.815 23.2662C124.969 22.8921 125.031 22.4604 125.031 21.9712C125.031 21.482 124.969 21.0791 124.815 20.6763C124.662 20.3022 124.446 19.9856 124.138 19.7554C123.831 19.5252 123.462 19.4101 123.031 19.4101C122.569 19.4101 122.2 19.5252 121.923 19.7554C121.615 19.9856 121.4 20.3022 121.246 20.6763C121.092 21.0504 121.031 21.482 121.031 21.9712C121.031 22.4317 121.092 22.8633 121.246 23.2662C121.4 23.6691 121.615 23.9568 121.923 24.187C122.231 24.4173 122.569 24.5324 123.031 24.5324Z" fill="#1D1D1D"/>
<path d="M136 18V19.5407H132.742V26H131V18H136Z" fill="#1D1D1D"/>
<path d="M143 26C142.2 26 141.492 25.8273 140.877 25.5108C140.262 25.1942 139.831 24.705 139.492 24.1007C139.154 23.4964 139 22.8058 139 22C139 21.1942 139.154 20.5036 139.492 19.8993C139.831 19.295 140.292 18.8345 140.877 18.4892C141.462 18.1439 142.169 18 143 18C143.831 18 144.508 18.1727 145.123 18.4892C145.738 18.8058 146.169 19.295 146.508 19.8993C146.846 20.5036 147 21.1942 147 22C147 22.8058 146.846 23.4964 146.508 24.1007C146.169 24.705 145.708 25.1655 145.123 25.5108C144.538 25.8561 143.8 26 143 26ZM143 24.5324C143.431 24.5324 143.8 24.4173 144.108 24.187C144.415 23.9568 144.631 23.6403 144.785 23.2662C144.938 22.8921 145 22.4604 145 21.9712C145 21.482 144.938 21.0791 144.785 20.6763C144.631 20.3022 144.415 19.9856 144.108 19.7554C143.8 19.5252 143.431 19.4101 143 19.4101C142.538 19.4101 142.169 19.5252 141.892 19.7554C141.585 19.9856 141.369 20.3022 141.215 20.6763C141.062 21.0504 141 21.482 141 21.9712C141 22.4317 141.062 22.8633 141.215 23.2662C141.369 23.6691 141.585 23.9568 141.892 24.187C142.2 24.4173 142.569 24.5324 143 24.5324Z" fill="#1D1D1D"/>
<path d="M74 41.942V37.8795H74.678C74.904 37.7054 75.1299 37.4152 75.3277 37.096C75.5254 36.7768 75.6949 36.2835 75.8362 35.7031C75.9774 35.1228 76.0621 34.3393 76.1186 33.4107L76.3729 29H82.8701V37.9085H84V41.971H82.2203V39.4754H75.7514V42H74V41.942ZM76.8249 37.8795H81.1186V30.567H78.0396L77.8701 33.4107C77.8136 34.1071 77.7571 34.7455 77.6723 35.3259C77.5876 35.8772 77.4463 36.3705 77.3051 36.8058C77.1638 37.2411 76.9944 37.5893 76.8249 37.8795Z" fill="#1D1D1D"/>
<path d="M92 40C91.2 40 90.4923 39.8273 89.8769 39.5108C89.2615 39.1942 88.8308 38.705 88.4923 38.1007C88.1538 37.4964 88 36.8058 88 36C88 35.1942 88.1538 34.5036 88.4923 33.8993C88.8308 33.295 89.2923 32.8345 89.8769 32.4892C90.4615 32.1439 91.1692 32 92 32C92.8308 32 93.5077 32.1727 94.1231 32.4892C94.7385 32.8058 95.1692 33.295 95.5077 33.8993C95.8462 34.5036 96 35.1942 96 36C96 36.8058 95.8462 37.4964 95.5077 38.1007C95.1692 38.705 94.7077 39.1655 94.1231 39.5108C93.5385 39.8561 92.8308 40 92 40ZM92.0308 38.5324C92.4615 38.5324 92.8308 38.4173 93.1385 38.1871C93.4462 37.9568 93.6615 37.6403 93.8154 37.2662C93.9692 36.8921 94.0308 36.4604 94.0308 35.9712C94.0308 35.482 93.9692 35.0791 93.8154 34.6763C93.6615 34.3022 93.4462 33.9856 93.1385 33.7554C92.8308 33.5252 92.4615 33.4101 92.0308 33.4101C91.5692 33.4101 91.2 33.5252 90.9231 33.7554C90.6154 33.9856 90.4 34.3022 90.2462 34.6763C90.0923 35.0504 90.0308 35.482 90.0308 35.9712C90.0308 36.4317 90.0923 36.8633 90.2462 37.2662C90.4 37.6691 90.6154 37.9568 90.9231 38.1871C91.2308 38.4173 91.5692 38.5324 92.0308 38.5324Z" fill="#1D1D1D"/>
<path d="M99 40V32H102.454C103.432 32 104.197 32.1778 104.777 32.563C105.358 32.9481 105.633 33.4815 105.633 34.1333C105.633 34.5778 105.48 34.9333 105.144 35.2296C104.838 35.5259 104.38 35.7037 103.83 35.7926C104.258 35.8222 104.655 35.9407 104.961 36.1185C105.266 36.2963 105.541 36.5333 105.725 36.8296C105.908 37.1259 106 37.4519 106 37.837C106 38.2815 105.878 38.6667 105.633 38.9926C105.389 39.3185 105.052 39.5556 104.594 39.7333C104.135 39.9111 103.585 40 102.943 40H99ZM100.803 35.2889H102.485C102.76 35.2889 102.974 35.2593 103.157 35.1704C103.341 35.0815 103.493 34.9926 103.585 34.8444C103.677 34.6963 103.738 34.5481 103.738 34.3407C103.738 34.0741 103.616 33.837 103.402 33.6889C103.188 33.5407 102.852 33.4519 102.454 33.4519H100.803V35.2889ZM100.803 38.4889H102.974C103.341 38.4889 103.616 38.4 103.83 38.2519C104.044 38.1037 104.135 37.8667 104.135 37.5704C104.135 37.2444 104.044 36.9778 103.83 36.8C103.616 36.6222 103.341 36.5037 102.974 36.5037H100.803V38.4889Z" fill="#1D1D1D"/>
<path d="M110 40V32H111.821V35.2296H112.476L114.78 32H116.972L114.126 35.9407L117 40H114.809L112.703 36.9778H111.821V40H110Z" fill="#1D1D1D"/>
<path d="M121 31.0079C120.73 31.0079 120.486 30.9206 120.297 30.7169C120.108 30.5132 120 30.2804 120 30.0185C120 29.7275 120.108 29.4947 120.297 29.291C120.486 29.0873 120.73 29 121 29C121.27 29 121.514 29.0873 121.703 29.291C121.892 29.4947 122 29.7275 122 30.0185C122 30.2804 121.892 30.5423 121.703 30.7169C121.514 30.8915 121.27 31.0079 121 31.0079ZM120.135 40V32.1429H121.865V40H120.135Z" fill="#1D1D1D"/>
<path d="M126 40V38.4593H126.25C126.444 38.4593 126.611 38.4 126.75 38.3111C126.889 38.2222 127 38.0741 127.083 37.837C127.167 37.6 127.25 37.3333 127.278 36.9481C127.306 36.563 127.361 36.1185 127.389 35.5556L127.528 32H133V40H131.278V33.5407H129.111L129 36.1185C128.972 36.8 128.889 37.363 128.806 37.837C128.722 38.3111 128.556 38.7259 128.333 39.0519C128.111 39.3778 127.889 39.6148 127.583 39.763C127.278 39.9111 126.944 40 126.528 40H126Z" fill="#1D1D1D"/>
<path d="M137 40V38.4593H137.25C137.444 38.4593 137.611 38.4 137.75 38.3111C137.889 38.2222 138 38.0741 138.083 37.837C138.167 37.6 138.25 37.3333 138.278 36.9481C138.306 36.563 138.361 36.1185 138.389 35.5556L138.528 32H144V40H142.278V33.5407H140.111L140 36.1185C139.972 36.8 139.889 37.363 139.806 37.837C139.722 38.3111 139.556 38.7259 139.333 39.0519C139.111 39.3778 138.889 39.6148 138.583 39.763C138.278 39.9111 137.944 40 137.528 40H137Z" fill="#1D1D1D"/>
<path d="M148 40L150.253 35.9118H152.146L149.863 40H148ZM153.257 40V33.5588H151.515C151.064 33.5588 150.734 33.6471 150.494 33.8529C150.253 34.0588 150.133 34.2941 150.133 34.5882C150.133 34.8824 150.253 35.1176 150.464 35.3235C150.704 35.5294 151.004 35.6176 151.425 35.6176H153.828V36.9706H151.425C150.764 36.9706 150.223 36.8824 149.742 36.6765C149.262 36.4706 148.901 36.2059 148.661 35.8235C148.421 35.4706 148.27 35.0294 148.27 34.5294C148.27 34.0294 148.391 33.5882 148.661 33.2059C148.931 32.8235 149.292 32.5294 149.773 32.3235C150.253 32.1176 150.824 32 151.485 32H155V39.9412H153.257V40Z" fill="#1D1D1D"/>
<path d="M54 53.7783C54 51.7778 52.601 50.0382 50.6191 49.6613C40.8261 47.8058 33.4523 39.253 33.4523 28.9897C33.4523 18.7263 40.8553 10.1735 50.6191 8.31799C52.601 7.94108 54 6.20153 54 4.20105C54 1.53373 51.5518 -0.437758 48.9286 0.0841072C35.3176 2.72243 25 14.6673 25 29.0187C25 43.37 35.3176 55.2859 48.9578 57.9242C51.5809 58.4171 54 56.4456 54 53.7783Z" fill="url(#paint0_linear_203_3090)"/>
<path d="M4.275 54C6.3107 54 8.08088 52.6024 8.46442 50.6225C10.3526 40.8394 19.056 33.4729 29.5 33.4729C39.944 33.4729 48.6474 40.8685 50.5356 50.6225C50.9191 52.6024 52.6893 54 54.725 54C57.4393 54 59.4455 51.5542 58.9144 48.9337C56.2296 35.3072 44.1039 25 29.5 25C14.8961 25 2.74085 35.3363 0.0855878 48.9629C-0.445465 51.5833 1.56073 54 4.275 54Z" fill="#31D376"/>
<path d="M54.7033 4C52.6673 4 50.8969 5.39759 50.5133 7.37751C48.6249 17.1606 39.9202 24.5271 29.4747 24.5271C19.0292 24.5271 10.3541 17.1606 8.46563 7.37751C8.08204 5.39759 6.31161 4 4.27562 4C1.56096 4 -0.445529 6.44578 0.0856001 9.06627C2.77075 22.6928 14.8982 33 29.5042 33C44.1103 33 56.2377 22.6928 58.9229 9.06627C59.4245 6.44578 57.418 4 54.7033 4Z" fill="url(#paint1_linear_203_3090)"/>
<path d="M4.275 54C6.3107 54 8.08088 52.6024 8.46442 50.6225C10.3526 40.8394 19.056 33.4729 29.5 33.4729C39.944 33.4729 48.6474 40.8685 50.5356 50.6225C50.9191 52.6024 52.6893 54 54.725 54C57.4393 54 59.4455 51.5542 58.9144 48.9337C56.2296 35.3072 44.1039 25 29.5 25C14.8961 25 2.74085 35.3363 0.0855878 48.9629C-0.445465 51.5833 1.56073 54 4.275 54Z" fill="url(#paint2_linear_203_3090)"/>
<path d="M4 4.20255C4 6.20374 5.39759 7.94392 7.37751 8.32095C17.1606 10.1771 24.5271 18.733 24.5271 29C24.5271 39.267 17.1315 47.8229 7.37751 49.6791C5.39759 50.0561 4 51.7963 4 53.7975C4 56.4657 6.44578 58.4379 9.06627 57.9159C22.6928 55.2766 33 43.3564 33 29C33 14.6436 22.6928 2.6944 9.06627 0.0841372C6.44578 -0.437914 4 1.53428 4 4.20255Z" fill="url(#paint3_linear_203_3090)"/>
</g>
<defs>
<linearGradient id="paint0_linear_203_3090" x1="39.506" y1="57.9927" x2="39.506" y2="0.0261204" gradientUnits="userSpaceOnUse">
<stop stop-color="#11B77B"/>
<stop offset="1" stop-color="#31D376"/>
</linearGradient>
<linearGradient id="paint1_linear_203_3090" x1="-0.00292135" y1="18.49" x2="58.9925" y2="18.49" gradientUnits="userSpaceOnUse">
<stop stop-color="#AEFFE8"/>
<stop offset="1" stop-color="#45EFC7"/>
</linearGradient>
<linearGradient id="paint2_linear_203_3090" x1="-0.00292094" y1="39.5206" x2="58.9841" y2="39.5206" gradientUnits="userSpaceOnUse">
<stop stop-color="#31D376"/>
<stop offset="1" stop-color="#11B77B"/>
</linearGradient>
<linearGradient id="paint3_linear_203_3090" x1="18.49" y1="-0.00287143" x2="18.49" y2="57.9844" gradientUnits="userSpaceOnUse">
<stop stop-color="#AEFFE8"/>
<stop offset="1" stop-color="#2BD8AA"/>
</linearGradient>
<clipPath id="clip0_203_3090">
<rect width="155" height="58" fill="white"/>
</clipPath>
</defs>
</svg>
