<svg xmlns="http://www.w3.org/2000/svg">
  <symbol id="heart" viewBox="0 0 30 26">
    <path d="M29.2742 5.32818C28.8087 4.28552 28.1375 3.34067 27.2983 2.54652C26.4583 1.75 25.4681 1.11702 24.3813 0.682001C23.2543 0.229118 22.0456 -0.0026936 20.8253 2.36135e-05C19.1133 2.36135e-05 17.443 0.453555 15.9914 1.31023C15.6442 1.51516 15.3143 1.74024 15.0017 1.98549C14.6892 1.74024 14.3593 1.51516 14.012 1.31023C12.5605 0.453555 10.8901 2.36135e-05 9.17813 2.36135e-05C7.94535 2.36135e-05 6.75077 0.228469 5.62217 0.682001C4.53177 1.11874 3.54902 1.74696 2.70517 2.54652C1.86479 3.33977 1.19346 4.28485 0.72925 5.32818C0.246556 6.4133 0 7.56561 0 8.75151C0 9.87022 0.236138 11.036 0.704942 12.2219C1.09735 13.2129 1.65991 14.2409 2.37874 15.279C3.51776 16.9218 5.08392 18.6351 7.02858 20.372C10.2512 23.2511 13.4425 25.2399 13.5779 25.3205L14.401 25.8312C14.7656 26.0563 15.2344 26.0563 15.599 25.8312L16.422 25.3205C16.5575 25.2366 19.7453 23.2511 22.9714 20.372C24.916 18.6351 26.4822 16.9218 27.6212 15.279C28.3401 14.2409 28.9061 13.2129 29.295 12.2219C29.7638 11.036 30 9.87022 30 8.75151C30.0034 7.56561 29.7569 6.4133 29.2742 5.32818V5.32818ZM15.0017 23.1738C15.0017 23.1738 2.63919 15.5108 2.63919 8.75151C2.63919 5.32818 5.56661 2.55324 9.17813 2.55324C11.7166 2.55324 13.9183 3.92391 15.0017 5.92617C16.0852 3.92391 18.2868 2.55324 20.8253 2.55324C24.4368 2.55324 27.3642 5.32818 27.3642 8.75151C27.3642 15.5108 15.0017 23.1738 15.0017 23.1738Z"/>
  </symbol>

  <symbol id="arrow" viewBox="0 0 20 21">
    <path d="M17.5569 7.90141C17.5575 8.06741 17.5209 8.23142 17.4497 8.3814C17.3786 8.53137 17.2747 8.6635 17.1458 8.76808L10.4792 14.1347C10.2804 14.2982 10.031 14.3875 9.77361 14.3875C9.51625 14.3875 9.26687 14.2982 9.06806 14.1347L2.40139 8.57919C2.17448 8.39059 2.03179 8.11958 2.0047 7.82577C1.97761 7.53197 2.06835 7.23943 2.25695 7.01253C2.44555 6.78562 2.71656 6.64292 3.01036 6.61584C3.30417 6.58875 3.59671 6.67948 3.82361 6.86808L9.77917 11.8347L15.7347 7.03475C15.8978 6.89888 16.0964 6.81257 16.307 6.78604C16.5176 6.7595 16.7314 6.79386 16.9231 6.88503C17.1148 6.9762 17.2764 7.12038 17.3887 7.3005C17.5011 7.48062 17.5594 7.68915 17.5569 7.90141Z"/>
  </symbol>

</svg>
