<svg id="Layer_1" data-name="Layer 1" xmlns="http://www.w3.org/2000/svg" xmlns:xlink="http://www.w3.org/1999/xlink" viewBox="0 0 14.72 10.34"><defs><style>.cls-1{fill:none;}.cls-2{clip-path:url(#clip-path);}.cls-3{fill:#00247d;}.cls-4{fill:#fff;}.cls-5{clip-path:url(#clip-path-2);}.cls-6{fill:#cf142b;}</style><clipPath id="clip-path" transform="translate(0.86 -1.33)"><path class="cls-1" d="M12.58,2.23a1.45,1.45,0,0,0-1-.42H1.44A1.43,1.43,0,0,0,0,3.25v6.5a1.43,1.43,0,0,0,1.44,1.44H11.56A1.43,1.43,0,0,0,13,9.75V3.25A1.45,1.45,0,0,0,12.58,2.23Z"/></clipPath><clipPath id="clip-path-2" transform="translate(0.86 -1.33)"><path class="cls-1" d="M6.5,6.5h7v4.69Zm0,0v4.69h-7Zm0,0h-7V1.81Zm0,0V1.81h7Z"/></clipPath></defs><g class="cls-2"><rect class="cls-3" x="0.32" y="0.48" width="14.08" height="9.39"/><polygon class="cls-4" points="10.05 4.36 8.82 5.17 10.05 5.98 14.4 8.89 14.4 9.86 12.93 9.86 8.71 7.05 8.17 6.69 7.36 6.15 6.54 6.69 6 7.05 1.78 9.86 0.32 9.86 0.32 8.89 3.86 6.53 4.67 5.98 5.89 5.17 4.67 4.36 3.86 3.81 0.32 1.45 0.32 0.47 1.78 0.47 6 3.29 6.54 3.65 7.36 4.19 8.17 3.65 8.71 3.29 12.93 0.47 14.4 0.47 14.4 1.45 10.05 4.36"/><g class="cls-5"><polygon class="cls-6" points="14.08 10.34 7.36 5.86 0.63 10.34 0 9.39 6.33 5.17 0 0.95 0.63 0 7.36 4.48 14.08 0 14.72 0.95 8.39 5.17 14.72 9.39 14.08 10.34"/></g><polygon class="cls-4" points="8.71 9.86 6 9.86 6 6.53 0.32 6.53 0.32 3.81 6 3.81 6 0.47 8.71 0.47 8.71 3.81 14.4 3.81 14.4 6.53 8.71 6.53 8.71 9.86"/><polygon class="cls-6" points="8.17 9.86 6.54 9.86 6.54 5.98 0.32 5.98 0.32 4.36 6.54 4.36 6.54 0.47 8.17 0.47 8.17 4.36 14.4 4.36 14.4 5.98 8.17 5.98 8.17 9.86"/></g></svg>